<?xml version="1.0" encoding="UTF-8" standalone="no"?>
<svg
   xmlns:dc="http://purl.org/dc/elements/1.1/"
   xmlns:cc="http://creativecommons.org/ns#"
   xmlns:rdf="http://www.w3.org/1999/02/22-rdf-syntax-ns#"
   xmlns:svg="http://www.w3.org/2000/svg"
   xmlns="http://www.w3.org/2000/svg"
   xmlns:sodipodi="http://sodipodi.sourceforge.net/DTD/sodipodi-0.dtd"
   xmlns:inkscape="http://www.inkscape.org/namespaces/inkscape"
   width="210mm"
   height="297mm"
   viewBox="0 0 210 297"
   version="1.1"
   id="svg1191"
   inkscape:version="1.0.2-2 (e86c870879, 2021-01-15)"
   sodipodi:docname="china_young.svg">
  <defs
     id="defs1185" />
  <sodipodi:namedview
     id="base"
     pagecolor="#ffffff"
     bordercolor="#666666"
     borderopacity="1.0"
     inkscape:pageopacity="0.0"
     inkscape:pageshadow="2"
     inkscape:zoom="5.6"
     inkscape:cx="87.584544"
     inkscape:cy="303.11605"
     inkscape:document-units="mm"
     inkscape:current-layer="layer1"
     inkscape:document-rotation="0"
     showgrid="false"
     inkscape:window-width="1280"
     inkscape:window-height="737"
     inkscape:window-x="-8"
     inkscape:window-y="-8"
     inkscape:window-maximized="1" />
  <metadata
     id="metadata1188">
    <rdf:RDF>
      <cc:Work
         rdf:about="">
        <dc:format>image/svg+xml</dc:format>
        <dc:type
           rdf:resource="http://purl.org/dc/dcmitype/StillImage" />
        <dc:title></dc:title>
      </cc:Work>
    </rdf:RDF>
  </metadata>
  <g
     inkscape:label="Layer 1"
     inkscape:groupmode="layer"
     id="layer1">
    <g
       aria-label="中
国
青
年"
       id="text1756"
       style="font-style:normal;font-variant:normal;font-weight:normal;font-stretch:normal;font-size:16.9333px;line-height:1.25;font-family:'Yu Gothic';-inkscape-font-specification:'Yu Gothic, Normal';font-variant-ligatures:normal;font-variant-caps:normal;font-variant-numeric:normal;font-variant-east-asian:normal;letter-spacing:0px;word-spacing:0px;stroke-width:0.264583">
      <path
         d="m 16.198035,222.38653 h -4.745954 v 1.00045 q 0,0.11576 -0.115755,0.11576 h -0.578775 q -0.115755,0 -0.115755,-0.11576 l 0.03307,-3.13365 v -1.54616 l -0.03307,-2.08358 q 0,-0.11576 0.115755,-0.11576 l 2.422587,0.0331 h 3.017897 v -1.42213 q 0,-1.53789 -0.115755,-2.16627 0.454752,0.0165 0.92604,0.0827 0.173633,0.0331 0.173633,0.13229 0,0.0248 -0.06615,0.28939 -0.107487,0.339 -0.107487,1.59576 v 1.48828 h 3.323822 l 2.422586,-0.0331 q 0.115755,0 0.115755,0.11576 l -0.03307,1.86861 v 1.71152 l 0.03307,3.11712 q 0,0.11575 -0.115755,0.11575 h -0.578775 q -0.115755,0 -0.115755,-0.11575 v -0.93431 H 17.00832 v 2.57141 l 0.03307,3.03444 q 0,0.11575 -0.115755,0.11575 h -0.644921 q -0.115755,0 -0.115755,-0.11575 l 0.03307,-3.0179 z m 0,-0.71107 v -4.40695 h -4.745954 v 4.40695 z m 0.810285,0 h 5.051878 v -4.40695 H 17.00832 Z"
         style="font-style:normal;font-variant:normal;font-weight:normal;font-stretch:normal;font-size:16.9333px;font-family:'Yu Gothic';-inkscape-font-specification:'Yu Gothic, Normal';font-variant-ligatures:normal;font-variant-caps:normal;font-variant-numeric:normal;font-variant-east-asian:normal;stroke-width:0.264583"
         id="path1764" />
      <path
         d="m 17.016588,238.22016 v 2.79465 h 1.289842 l 2.075321,-0.0331 q 0.124023,0 0.124023,0.11576 v 0.49609 q 0,0.11575 -0.124023,0.11575 l -2.075321,-0.0331 h -1.289842 v 3.28248 h 2.050517 l 2.298563,-0.0331 q 0.124024,0 0.124024,0.11575 v 0.52917 q 0,0.11575 -0.124024,0.11575 l -2.298563,-0.0331 h -4.638467 l -2.306832,0.0331 q -0.115755,0 -0.115755,-0.11575 v -0.52917 q 0,-0.11575 0.115755,-0.11575 l 2.306832,0.0331 h 1.827275 v -3.28248 h -1.0666 l -2.100126,0.0331 q -0.115755,0 -0.115755,-0.11575 v -0.49609 q 0,-0.11576 0.115755,-0.11576 l 2.100126,0.0331 h 1.0666 v -2.79465 h -1.521351 l -2.273759,0.0331 q -0.115755,0 -0.115755,-0.11576 v -0.49609 q 0,-0.11575 0.115755,-0.11575 l 2.273759,0.0331 h 4.109301 l 2.257223,-0.0331 q 0.115755,0 0.115755,0.11575 v 0.49609 q 0,0.11576 -0.115755,0.11576 l -2.257223,-0.0331 z m 1.951299,4.11757 q 0.793748,0.74414 1.455205,1.76113 0.03307,0.0579 0.03307,0.0744 0,0.0496 -0.132291,0.14056 l -0.190169,0.14056 q -0.148828,0.10749 -0.190169,0.10749 -0.04134,0 -0.09095,-0.0909 -0.562238,-0.93431 -1.405596,-1.77767 -0.04961,-0.0496 -0.04961,-0.0827 0,-0.0413 0.148828,-0.14056 l 0.165364,-0.11576 q 0.124023,-0.0827 0.148828,-0.0827 0.03307,0 0.107487,0.0661 z m -7.995362,5.87043 v 1.01699 q 0,0.11575 -0.115755,0.11575 h -0.595312 q -0.115755,0 -0.115755,-0.11575 l 0.03307,-6.23423 v -3.41478 l -0.03307,-4.45656 q 0,-0.11576 0.115755,-0.11576 l 2.389514,0.0331 h 8.177263 l 2.389513,-0.0331 q 0.115755,0 0.115755,0.11576 l -0.03307,3.99354 v 3.8778 l 0.03307,6.23423 q 0,0.11575 -0.115755,0.11575 h -0.595311 q -0.115755,0 -0.115755,-0.11575 v -1.01699 z m 0,-0.69453 H 22.506682 V 235.7645 H 10.972525 Z"
         style="font-style:normal;font-variant:normal;font-weight:normal;font-stretch:normal;font-size:16.9333px;font-family:'Yu Gothic';-inkscape-font-specification:'Yu Gothic, Normal';font-variant-ligatures:normal;font-variant-caps:normal;font-variant-numeric:normal;font-variant-east-asian:normal;stroke-width:0.264583"
         id="path1766" />
      <path
         d="m 16.247645,260.99082 v -1.39733 h -2.067054 l -2.372977,0.0331 q -0.115755,0 -0.115755,-0.11575 v -0.47956 q 0,-0.11576 0.115755,-0.11576 l 2.372977,0.0331 h 2.067054 v -1.32292 H 13.21321 l -2.381245,0.0331 q -0.124023,0 -0.124023,-0.11576 v -0.49609 q 0,-0.11576 0.124023,-0.11576 l 2.381245,0.0331 h 3.034435 q 0,-1.28985 -0.115755,-1.7446 0.487824,0.0248 0.87643,0.0827 0.190169,0.0331 0.190169,0.14056 0,0.0662 -0.107487,0.30593 -0.08268,0.2067 -0.08268,1.21543 h 3.249408 l 2.40605,-0.0331 q 0.115755,0 0.115755,0.11576 v 0.49609 q 0,0.11576 -0.115755,0.11576 l -2.40605,-0.0331 H 17.00832 v 1.32292 h 2.422587 l 2.35644,-0.0331 q 0.115755,0 0.115755,0.11576 v 0.47956 q 0,0.11575 -0.115755,0.11575 l -2.35644,-0.0331 H 17.00832 v 1.39733 h 4.605395 l 2.273758,-0.0331 q 0.115755,0 0.115755,0.11576 v 0.49609 q 0,0.11576 -0.115755,0.11576 l -2.273758,-0.0331 H 11.96471 l -2.2737582,0.0331 q -0.115755,0 -0.115755,-0.11576 v -0.49609 q 0,-0.11576 0.115755,-0.11576 l 2.2737582,0.0331 z m 4.200252,6.55669 h -7.317369 v 0.90123 l 0.03307,1.89342 q 0,0.0992 -0.115755,0.0992 h -0.578775 q -0.115755,0 -0.115755,-0.0992 l 0.03307,-1.86034 v -3.64629 l -0.03307,-1.89342 q 0,-0.11575 0.115755,-0.11575 l 2.290295,0.0331 h 4.059693 l 2.290295,-0.0331 q 0.115755,0 0.115755,0.11575 l -0.03307,1.97611 v 2.01744 l 0.03307,1.93476 q 0,0.81029 -0.355533,1.11621 -0.380338,0.30592 -1.785934,0.30592 -0.08268,0 -0.28112,0 -0.223241,0 -0.264582,-0.0331 -0.04134,-0.0331 -0.09095,-0.22324 -0.07441,-0.28939 -0.289387,-0.57877 0.752407,0.0744 1.595765,0.0744 0.69453,0 0.69453,-0.7276 z m 0,-0.64492 v -1.4056 h -7.317369 v 1.4056 z m 0,-2.05052 v -1.31464 h -7.317369 v 1.31464 z"
         style="font-style:normal;font-variant:normal;font-weight:normal;font-stretch:normal;font-size:16.9333px;font-family:'Yu Gothic';-inkscape-font-specification:'Yu Gothic, Normal';font-variant-ligatures:normal;font-variant-caps:normal;font-variant-numeric:normal;font-variant-east-asian:normal;stroke-width:0.264583"
         id="path1768" />
      <path
         d="m 17.785532,279.70178 v 3.00136 h 2.116663 l 2.372977,-0.0331 q 0.09922,0 0.09922,0.11575 v 0.54571 q 0,0.11575 -0.09922,0.11575 l -2.372977,-0.0331 h -2.116663 v 3.35689 h 3.877792 l 2.248954,-0.0331 q 0.124023,0 0.124023,0.11576 v 0.56223 q 0,0.11576 -0.124023,0.11576 l -2.248954,-0.0331 h -3.877792 v 1.23196 l 0.03307,2.81119 q 0,0.10749 -0.09922,0.10749 h -0.628384 q -0.132291,0 -0.132291,-0.10749 l 0.03307,-2.81119 v -1.23196 h -5.192438 l -2.2489539,0.0331 q -0.1157549,0 -0.1157549,-0.11576 v -0.56223 q 0,-0.11576 0.1157549,-0.11576 l 2.2489539,0.0331 h 0.545702 v -2.53007 l -0.03307,-1.45521 q 0,-0.11575 0.115755,-0.11575 l 2.389514,0.0331 h 2.17454 v -3.00136 h -3.985279 q -0.959113,1.44694 -2.215881,2.71198 -0.14056,0.14882 -0.190169,0.14882 -0.04134,0 -0.181901,-0.16536 -0.206705,-0.20671 -0.4630194,-0.30593 2.2324174,-2.05051 3.3734304,-4.57232 0.256315,-0.59531 0.338997,-1.0666 0.380338,0.091 0.851626,0.30593 0.132292,0.0413 0.132292,0.1819 0,0.0992 -0.132292,0.2067 -0.198437,0.14056 -0.429947,0.61185 -0.281119,0.58704 -0.661457,1.23196 h 7.185077 l 2.372977,-0.0331 q 0.115755,0 0.115755,0.11576 v 0.5457 q 0,0.11575 -0.115755,0.11575 l -2.372977,-0.0331 z m -0.793748,7.06932 v -3.35689 H 13.12226 v 3.35689 z"
         style="font-style:normal;font-variant:normal;font-weight:normal;font-stretch:normal;font-size:16.9333px;font-family:'Yu Gothic';-inkscape-font-specification:'Yu Gothic, Normal';font-variant-ligatures:normal;font-variant-caps:normal;font-variant-numeric:normal;font-variant-east-asian:normal;stroke-width:0.264583"
         id="path1770" />
    </g>
  </g>
</svg>
