<?xml version="1.0" encoding="UTF-8" standalone="no"?>
<svg
   xmlns:dc="http://purl.org/dc/elements/1.1/"
   xmlns:cc="http://creativecommons.org/ns#"
   xmlns:rdf="http://www.w3.org/1999/02/22-rdf-syntax-ns#"
   xmlns:svg="http://www.w3.org/2000/svg"
   xmlns="http://www.w3.org/2000/svg"
   xmlns:sodipodi="http://sodipodi.sourceforge.net/DTD/sodipodi-0.dtd"
   xmlns:inkscape="http://www.inkscape.org/namespaces/inkscape"
   width="210mm"
   height="297mm"
   viewBox="0 0 210 297"
   version="1.1"
   id="svg1191"
   inkscape:version="1.0.2-2 (e86c870879, 2021-01-15)"
   sodipodi:docname="modern_young.svg">
  <defs
     id="defs1185" />
  <sodipodi:namedview
     id="base"
     pagecolor="#ffffff"
     bordercolor="#666666"
     borderopacity="1.0"
     inkscape:pageopacity="0.0"
     inkscape:pageshadow="2"
     inkscape:zoom="1.4"
     inkscape:cx="53.447895"
     inkscape:cy="329.35144"
     inkscape:document-units="mm"
     inkscape:current-layer="text1756"
     inkscape:document-rotation="0"
     showgrid="false"
     inkscape:window-width="1280"
     inkscape:window-height="737"
     inkscape:window-x="-8"
     inkscape:window-y="-8"
     inkscape:window-maximized="1"
     showguides="false" />
  <metadata
     id="metadata1188">
    <rdf:RDF>
      <cc:Work
         rdf:about="">
        <dc:format>image/svg+xml</dc:format>
        <dc:type
           rdf:resource="http://purl.org/dc/dcmitype/StillImage" />
        <dc:title></dc:title>
      </cc:Work>
    </rdf:RDF>
  </metadata>
  <g
     inkscape:label="Layer 1"
     inkscape:groupmode="layer"
     id="layer1">
    <g
       aria-label="中
国
青
年"
       id="text1756"
       style="font-style:normal;font-variant:normal;font-weight:normal;font-stretch:normal;font-size:16.9333px;line-height:1.25;font-family:'Yu Gothic';-inkscape-font-specification:'Yu Gothic, Normal';font-variant-ligatures:normal;font-variant-caps:normal;font-variant-numeric:normal;font-variant-east-asian:normal;letter-spacing:0px;word-spacing:0px;stroke-width:0.264583">
      <g
         aria-label="现
代
青
年"
         id="text1775"
         style="font-style:normal;font-variant:normal;font-weight:normal;font-stretch:normal;font-size:16.9333px;line-height:1.25;font-family:sans-serif;-inkscape-font-specification:'sans-serif, Normal';font-variant-ligatures:normal;font-variant-caps:normal;font-variant-numeric:normal;font-variant-east-asian:normal;letter-spacing:0px;word-spacing:0px;stroke-width:0.0700042">
        <path
           d="m 16.366349,209.88242 h 1.289841 v 2.77812 q 0,2.12493 -0.363801,3.73723 h 1.091404 v 4.16718 q 0,0.87643 0.959113,0.87643 h 0.793748 q 0.992186,0 1.091404,-0.89297 0.09922,-0.76067 0.165364,-2.16627 0.562239,0.23151 1.355987,0.51263 -0.132291,1.4552 -0.264582,2.18281 -0.248047,1.52135 -2.166272,1.52135 h -1.223696 q -1.967834,0 -1.967834,-1.86862 v -3.66282 q -0.338997,1.17409 -0.892967,2.04225 -1.405597,2.26549 -4.646736,3.93567 -0.429947,-0.61185 -0.892967,-1.0914 3.224603,-1.55443 4.481371,-3.60494 1.190623,-1.85208 1.190623,-5.58931 z M 12.8937,207.51771 h 8.450113 v 9.92185 h -1.289841 v -8.69816 h -5.870431 v 8.92967 H 12.8937 Z m -6.6311071,12.3031 q 1.1906226,-0.32246 2.4970003,-0.69453 v -4.8121 H 6.576785 v -1.19062 h 2.1828082 v -3.83645 H 6.4444936 v -1.19063 h 5.9531134 v 1.19063 h -2.348173 v 3.83645 h 2.116663 v 1.19062 h -2.116663 v 4.43176 q 1.174087,-0.35553 2.430855,-0.74414 0.03307,0.62839 0.115755,1.24023 -2.8442653,0.87643 -5.8704312,1.85208 z"
           style="font-style:normal;font-variant:normal;font-weight:normal;font-stretch:normal;font-size:16.9333px;font-family:sans-serif;-inkscape-font-specification:'sans-serif, Normal';font-variant-ligatures:normal;font-variant-caps:normal;font-variant-numeric:normal;font-variant-east-asian:normal;stroke-width:0.0700042"
           id="path1783" />
        <path
           d="m 10.942401,234.12134 3.910865,-0.42994 q -0.198437,-2.10013 -0.272851,-5.24205 h 1.438669 q -0.03307,2.4722 0.206705,5.09322 l 6.0606,-0.66146 0.148828,1.2237 -6.077136,0.66972 q 0.934308,6.84608 3.596672,8.21034 0.727603,0.29765 0.942577,-0.47956 0.314192,-1.17408 0.529165,-2.66236 0.69453,0.29765 1.322914,0.47955 -0.248046,1.60404 -0.595311,2.84427 -0.446483,1.43867 -1.769397,1.40559 -1.422133,-0.0496 -2.711974,-1.70325 -1.918226,-2.23241 -2.670633,-7.94575 l -3.861256,0.42168 z m -4.7955631,2.16628 q 2.5796824,-3.47265 4.0844971,-7.93749 l 1.322914,0.46302 q -0.735871,1.92649 -1.537887,3.58014 v 12.26176 H 8.6603746 v -9.72342 q -0.9425763,1.57923 -1.9512982,2.84426 -0.23151,-0.67799 -0.5622385,-1.48827 z m 11.3935971,-6.53189 0.859894,-0.87643 q 1.455206,1.10794 2.976557,2.46392 l -1.008722,1.02526 q -1.38906,-1.42213 -2.827729,-2.61275 z"
           style="font-style:normal;font-variant:normal;font-weight:normal;font-stretch:normal;font-size:16.9333px;font-family:sans-serif;-inkscape-font-specification:'sans-serif, Normal';font-variant-ligatures:normal;font-variant-caps:normal;font-variant-numeric:normal;font-variant-east-asian:normal;stroke-width:0.0700042"
           id="path1785" />
        <path
           d="M 9.9336794,266.09932 H 8.6273018 v -8.38397 H 20.417773 v 6.54842 q 0,1.73633 -2.050516,1.71979 -1.20716,0 -2.497001,-0.0165 -0.06614,-0.52917 -0.248046,-1.27331 1.322914,0.0992 2.563146,0.0992 0.909503,0 0.909503,-0.76068 v -0.92604 H 9.9336794 Z M 6.576785,255.6483 h 7.3091 v -1.12448 H 7.7674076 v -1.0418 h 6.1184774 v -1.10794 H 6.9075135 v -1.05833 h 6.9783715 v -1.47174 h 1.322914 v 1.47174 h 6.912226 v 1.05833 h -6.912226 v 1.10794 h 5.721604 v 1.0418 h -5.721604 v 1.12448 h 7.242955 v 1.05833 H 6.576785 Z m 12.518074,3.12538 H 9.9336794 v 1.14101 h 9.1611796 z m -9.1611796,3.30729 h 9.1611796 v -1.14102 H 9.9336794 Z"
           style="font-style:normal;font-variant:normal;font-weight:normal;font-stretch:normal;font-size:16.9333px;font-family:sans-serif;-inkscape-font-specification:'sans-serif, Normal';font-variant-ligatures:normal;font-variant-caps:normal;font-variant-numeric:normal;font-variant-east-asian:normal;stroke-width:0.0700042"
           id="path1787" />
        <path
           d="M 6.3618114,282.2354 H 9.024176 v -4.72942 h 5.853895 v -2.94349 h -4.861709 q -1.1162092,2.00918 -2.4970008,3.70416 -0.429947,-0.46302 -1.0252584,-0.92604 2.3481725,-2.64582 3.5222592,-5.93657 l 1.355986,0.38033 q -0.347264,0.81856 -0.727602,1.5875 h 11.377061 v 1.19062 h -5.804286 v 2.94349 h 5.523166 v 1.15755 h -5.523166 v 3.57187 h 6.548425 v 1.19062 h -6.548425 v 4.46483 h -1.33945 v -4.46483 H 6.3618114 Z m 3.9687426,0 h 4.547517 v -3.57187 h -4.547517 z"
           style="font-style:normal;font-variant:normal;font-weight:normal;font-stretch:normal;font-size:16.9333px;font-family:sans-serif;-inkscape-font-specification:'sans-serif, Normal';font-variant-ligatures:normal;font-variant-caps:normal;font-variant-numeric:normal;font-variant-east-asian:normal;stroke-width:0.0700042"
           id="path1789" />
      </g>
    </g>
  </g>
</svg>
